<mxfile host="app.diagrams.net" modified="2021-06-12T10:28:09.863Z" agent="5.0 (Windows NT 10.0; Win64; x64) AppleWebKit/537.36 (KHTML, like Gecko) Chrome/91.0.4472.77 Safari/537.36 Edg/91.0.864.41" etag="Q9kjoAzOPH97jk5YIv3O" version="14.7.7" type="github">
  <diagram id="RMA0gpW58A4giQYbhMxl" name="Page-1">
    <mxGraphModel dx="1958" dy="1825" grid="1" gridSize="10" guides="1" tooltips="1" connect="1" arrows="1" fold="1" page="1" pageScale="1" pageWidth="850" pageHeight="1100" math="0" shadow="0">
      <root>
        <mxCell id="0" />
        <mxCell id="1" parent="0" />
        <mxCell id="KsnyNKV8xD6eK6TbKihS-121" style="edgeStyle=orthogonalEdgeStyle;rounded=0;orthogonalLoop=1;jettySize=auto;html=1;fontSize=12;" parent="1" source="bsy1FFPhVirSa5bNv7_C-1" target="KsnyNKV8xD6eK6TbKihS-117" edge="1">
          <mxGeometry relative="1" as="geometry" />
        </mxCell>
        <mxCell id="fEtWrxZ9Q_CUSQm69vdD-6" style="edgeStyle=orthogonalEdgeStyle;rounded=0;orthogonalLoop=1;jettySize=auto;html=1;" parent="1" source="KsnyNKV8xD6eK6TbKihS-116" target="fEtWrxZ9Q_CUSQm69vdD-1" edge="1">
          <mxGeometry relative="1" as="geometry" />
        </mxCell>
        <mxCell id="KsnyNKV8xD6eK6TbKihS-116" value="Hãy kiểm tra lại thông tin&lt;br&gt;chi tiêu trước khi xác nhận" style="strokeWidth=1;shadow=0;dashed=0;align=center;html=1;shape=mxgraph.mockup.containers.rrect;rSize=0;strokeColor=#666666;fontColor=#666666;fontSize=17;verticalAlign=top;whiteSpace=wrap;fillColor=#ffffff;spacingTop=32;" parent="1" vertex="1">
          <mxGeometry x="245" y="480" width="250" height="140" as="geometry" />
        </mxCell>
        <mxCell id="KsnyNKV8xD6eK6TbKihS-117" value="Xác nhận" style="strokeWidth=1;shadow=0;dashed=0;align=center;html=1;shape=mxgraph.mockup.containers.rrect;rSize=0;fontSize=17;fontColor=#666666;strokeColor=#666666;align=left;spacingLeft=8;fillColor=none;resizeWidth=1;" parent="KsnyNKV8xD6eK6TbKihS-116" vertex="1">
          <mxGeometry width="250" height="30" relative="1" as="geometry" />
        </mxCell>
        <mxCell id="KsnyNKV8xD6eK6TbKihS-118" value="" style="shape=ellipse;strokeColor=#008cff;resizable=0;fillColor=none;html=1;" parent="KsnyNKV8xD6eK6TbKihS-117" vertex="1">
          <mxGeometry x="1" y="0.5" width="20" height="20" relative="1" as="geometry">
            <mxPoint x="-25" y="-10" as="offset" />
          </mxGeometry>
        </mxCell>
        <mxCell id="KsnyNKV8xD6eK6TbKihS-119" value="Cancel" style="strokeWidth=1;shadow=0;dashed=0;align=center;html=1;shape=mxgraph.mockup.containers.rrect;rSize=0;fontSize=16;fontColor=#666666;strokeColor=#c4c4c4;whiteSpace=wrap;fillColor=none;" parent="KsnyNKV8xD6eK6TbKihS-116" vertex="1">
          <mxGeometry x="0.25" y="1" width="90" height="25" relative="1" as="geometry">
            <mxPoint x="-45" y="-33" as="offset" />
          </mxGeometry>
        </mxCell>
        <mxCell id="KsnyNKV8xD6eK6TbKihS-120" value="OK" style="strokeWidth=1;shadow=0;dashed=0;align=center;html=1;shape=mxgraph.mockup.containers.rrect;rSize=0;fontSize=16;fontColor=#666666;strokeColor=#c4c4c4;whiteSpace=wrap;fillColor=none;" parent="KsnyNKV8xD6eK6TbKihS-116" vertex="1">
          <mxGeometry x="0.75" y="1" width="90" height="25" relative="1" as="geometry">
            <mxPoint x="-45" y="-33" as="offset" />
          </mxGeometry>
        </mxCell>
        <mxCell id="KsnyNKV8xD6eK6TbKihS-128" value="&lt;span style=&quot;font-weight: normal&quot;&gt;Không cho phép người dùng chỉnh sửa&lt;/span&gt;" style="whiteSpace=wrap;html=1;shadow=0;dashed=0;fontStyle=1;strokeWidth=1;fillColor=#008CFF;fontColor=#FFFFFF;" parent="1" vertex="1">
          <mxGeometry x="710" y="142.5" width="120" height="60" as="geometry" />
        </mxCell>
        <mxCell id="KsnyNKV8xD6eK6TbKihS-130" value="" style="group" parent="1" vertex="1" connectable="0">
          <mxGeometry x="90" y="50" width="560" height="380" as="geometry" />
        </mxCell>
        <mxCell id="bsy1FFPhVirSa5bNv7_C-1" value="Thông tin chi tiêu" style="strokeWidth=1;shadow=0;dashed=0;align=center;html=1;shape=mxgraph.mockup.containers.window;align=left;verticalAlign=top;spacingLeft=8;strokeColor2=#008cff;strokeColor3=#c4c4c4;fontColor=#666666;mainText=;fontSize=17;labelBackgroundColor=none;" parent="KsnyNKV8xD6eK6TbKihS-130" vertex="1">
          <mxGeometry width="560" height="380" as="geometry" />
        </mxCell>
        <mxCell id="bsy1FFPhVirSa5bNv7_C-2" value="Ngày giao dịch" style="text;html=1;strokeColor=none;fillColor=none;align=center;verticalAlign=middle;whiteSpace=wrap;rounded=0;" parent="KsnyNKV8xD6eK6TbKihS-130" vertex="1">
          <mxGeometry x="20" y="50" width="100" height="25" as="geometry" />
        </mxCell>
        <mxCell id="bsy1FFPhVirSa5bNv7_C-3" value="" style="strokeWidth=1;shadow=0;dashed=0;align=center;html=1;shape=mxgraph.mockup.text.textBox;fontColor=#666666;align=left;fontSize=12;spacingLeft=4;spacingTop=-3;strokeColor=#666666;mainText=" parent="KsnyNKV8xD6eK6TbKihS-130" vertex="1">
          <mxGeometry x="120" y="50" width="150" height="25" as="geometry" />
        </mxCell>
        <mxCell id="KsnyNKV8xD6eK6TbKihS-67" value="" style="shape=table;html=1;whiteSpace=wrap;startSize=0;container=1;collapsible=0;childLayout=tableLayout;" parent="KsnyNKV8xD6eK6TbKihS-130" vertex="1">
          <mxGeometry y="170" width="560" height="140" as="geometry" />
        </mxCell>
        <mxCell id="KsnyNKV8xD6eK6TbKihS-68" value="" style="shape=partialRectangle;html=1;whiteSpace=wrap;collapsible=0;dropTarget=0;pointerEvents=0;fillColor=none;top=0;left=0;bottom=0;right=0;points=[[0,0.5],[1,0.5]];portConstraint=eastwest;" parent="KsnyNKV8xD6eK6TbKihS-67" vertex="1">
          <mxGeometry width="560" height="25" as="geometry" />
        </mxCell>
        <mxCell id="KsnyNKV8xD6eK6TbKihS-69" value="STT" style="shape=partialRectangle;html=1;whiteSpace=wrap;connectable=0;overflow=hidden;fillColor=#f5f5f5;top=0;left=0;bottom=0;right=0;strokeColor=#666666;gradientDirection=south;gradientColor=#b3b3b3;" parent="KsnyNKV8xD6eK6TbKihS-68" vertex="1">
          <mxGeometry width="141" height="25" as="geometry" />
        </mxCell>
        <mxCell id="KsnyNKV8xD6eK6TbKihS-70" value="Tên hàng hóa" style="shape=partialRectangle;html=1;whiteSpace=wrap;connectable=0;overflow=hidden;fillColor=#f5f5f5;top=0;left=0;bottom=0;right=0;strokeColor=#666666;gradientDirection=south;gradientColor=#b3b3b3;" parent="KsnyNKV8xD6eK6TbKihS-68" vertex="1">
          <mxGeometry x="141" width="139" height="25" as="geometry" />
        </mxCell>
        <mxCell id="KsnyNKV8xD6eK6TbKihS-71" value="Số lượng" style="shape=partialRectangle;html=1;whiteSpace=wrap;connectable=0;overflow=hidden;fillColor=#f5f5f5;top=0;left=0;bottom=0;right=0;strokeColor=#666666;gradientDirection=south;gradientColor=#b3b3b3;" parent="KsnyNKV8xD6eK6TbKihS-68" vertex="1">
          <mxGeometry x="280" width="141" height="25" as="geometry" />
        </mxCell>
        <mxCell id="KsnyNKV8xD6eK6TbKihS-72" value="Tổng" style="shape=partialRectangle;html=1;whiteSpace=wrap;connectable=0;overflow=hidden;fillColor=#f5f5f5;top=0;left=0;bottom=0;right=0;strokeColor=#666666;gradientDirection=south;gradientColor=#b3b3b3;" parent="KsnyNKV8xD6eK6TbKihS-68" vertex="1">
          <mxGeometry x="421" width="139" height="25" as="geometry" />
        </mxCell>
        <mxCell id="KsnyNKV8xD6eK6TbKihS-73" value="" style="shape=partialRectangle;html=1;whiteSpace=wrap;collapsible=0;dropTarget=0;pointerEvents=0;fillColor=none;top=0;left=0;bottom=0;right=0;points=[[0,0.5],[1,0.5]];portConstraint=eastwest;" parent="KsnyNKV8xD6eK6TbKihS-67" vertex="1">
          <mxGeometry y="25" width="560" height="28" as="geometry" />
        </mxCell>
        <mxCell id="KsnyNKV8xD6eK6TbKihS-74" value="" style="shape=partialRectangle;html=1;whiteSpace=wrap;connectable=0;overflow=hidden;fillColor=none;top=0;left=0;bottom=0;right=0;" parent="KsnyNKV8xD6eK6TbKihS-73" vertex="1">
          <mxGeometry width="141" height="28" as="geometry" />
        </mxCell>
        <mxCell id="KsnyNKV8xD6eK6TbKihS-75" value="" style="shape=partialRectangle;html=1;whiteSpace=wrap;connectable=0;overflow=hidden;fillColor=none;top=0;left=0;bottom=0;right=0;" parent="KsnyNKV8xD6eK6TbKihS-73" vertex="1">
          <mxGeometry x="141" width="139" height="28" as="geometry" />
        </mxCell>
        <mxCell id="KsnyNKV8xD6eK6TbKihS-76" value="" style="shape=partialRectangle;html=1;whiteSpace=wrap;connectable=0;overflow=hidden;fillColor=none;top=0;left=0;bottom=0;right=0;" parent="KsnyNKV8xD6eK6TbKihS-73" vertex="1">
          <mxGeometry x="280" width="141" height="28" as="geometry" />
        </mxCell>
        <mxCell id="KsnyNKV8xD6eK6TbKihS-77" value="" style="shape=partialRectangle;html=1;whiteSpace=wrap;connectable=0;overflow=hidden;fillColor=none;top=0;left=0;bottom=0;right=0;" parent="KsnyNKV8xD6eK6TbKihS-73" vertex="1">
          <mxGeometry x="421" width="139" height="28" as="geometry" />
        </mxCell>
        <mxCell id="KsnyNKV8xD6eK6TbKihS-78" value="" style="shape=partialRectangle;html=1;whiteSpace=wrap;collapsible=0;dropTarget=0;pointerEvents=0;fillColor=none;top=0;left=0;bottom=0;right=0;points=[[0,0.5],[1,0.5]];portConstraint=eastwest;" parent="KsnyNKV8xD6eK6TbKihS-67" vertex="1">
          <mxGeometry y="53" width="560" height="29" as="geometry" />
        </mxCell>
        <mxCell id="KsnyNKV8xD6eK6TbKihS-79" value="" style="shape=partialRectangle;html=1;whiteSpace=wrap;connectable=0;overflow=hidden;fillColor=none;top=0;left=0;bottom=0;right=0;" parent="KsnyNKV8xD6eK6TbKihS-78" vertex="1">
          <mxGeometry width="141" height="29" as="geometry" />
        </mxCell>
        <mxCell id="KsnyNKV8xD6eK6TbKihS-80" value="" style="shape=partialRectangle;html=1;whiteSpace=wrap;connectable=0;overflow=hidden;fillColor=none;top=0;left=0;bottom=0;right=0;" parent="KsnyNKV8xD6eK6TbKihS-78" vertex="1">
          <mxGeometry x="141" width="139" height="29" as="geometry" />
        </mxCell>
        <mxCell id="KsnyNKV8xD6eK6TbKihS-81" value="" style="shape=partialRectangle;html=1;whiteSpace=wrap;connectable=0;overflow=hidden;fillColor=none;top=0;left=0;bottom=0;right=0;" parent="KsnyNKV8xD6eK6TbKihS-78" vertex="1">
          <mxGeometry x="280" width="141" height="29" as="geometry" />
        </mxCell>
        <mxCell id="KsnyNKV8xD6eK6TbKihS-82" value="" style="shape=partialRectangle;html=1;whiteSpace=wrap;connectable=0;overflow=hidden;fillColor=none;top=0;left=0;bottom=0;right=0;" parent="KsnyNKV8xD6eK6TbKihS-78" vertex="1">
          <mxGeometry x="421" width="139" height="29" as="geometry" />
        </mxCell>
        <mxCell id="KsnyNKV8xD6eK6TbKihS-83" value="" style="shape=partialRectangle;html=1;whiteSpace=wrap;collapsible=0;dropTarget=0;pointerEvents=0;fillColor=none;top=0;left=0;bottom=0;right=0;points=[[0,0.5],[1,0.5]];portConstraint=eastwest;" parent="KsnyNKV8xD6eK6TbKihS-67" vertex="1">
          <mxGeometry y="82" width="560" height="29" as="geometry" />
        </mxCell>
        <mxCell id="KsnyNKV8xD6eK6TbKihS-84" value="" style="shape=partialRectangle;html=1;whiteSpace=wrap;connectable=0;overflow=hidden;fillColor=none;top=0;left=0;bottom=0;right=0;" parent="KsnyNKV8xD6eK6TbKihS-83" vertex="1">
          <mxGeometry width="141" height="29" as="geometry" />
        </mxCell>
        <mxCell id="KsnyNKV8xD6eK6TbKihS-85" value="" style="shape=partialRectangle;html=1;whiteSpace=wrap;connectable=0;overflow=hidden;fillColor=none;top=0;left=0;bottom=0;right=0;" parent="KsnyNKV8xD6eK6TbKihS-83" vertex="1">
          <mxGeometry x="141" width="139" height="29" as="geometry" />
        </mxCell>
        <mxCell id="KsnyNKV8xD6eK6TbKihS-86" value="" style="shape=partialRectangle;html=1;whiteSpace=wrap;connectable=0;overflow=hidden;fillColor=none;top=0;left=0;bottom=0;right=0;" parent="KsnyNKV8xD6eK6TbKihS-83" vertex="1">
          <mxGeometry x="280" width="141" height="29" as="geometry" />
        </mxCell>
        <mxCell id="KsnyNKV8xD6eK6TbKihS-87" value="" style="shape=partialRectangle;html=1;whiteSpace=wrap;connectable=0;overflow=hidden;fillColor=none;top=0;left=0;bottom=0;right=0;" parent="KsnyNKV8xD6eK6TbKihS-83" vertex="1">
          <mxGeometry x="421" width="139" height="29" as="geometry" />
        </mxCell>
        <mxCell id="KsnyNKV8xD6eK6TbKihS-88" value="" style="shape=partialRectangle;html=1;whiteSpace=wrap;collapsible=0;dropTarget=0;pointerEvents=0;fillColor=none;top=0;left=0;bottom=0;right=0;points=[[0,0.5],[1,0.5]];portConstraint=eastwest;" parent="KsnyNKV8xD6eK6TbKihS-67" vertex="1">
          <mxGeometry y="111" width="560" height="29" as="geometry" />
        </mxCell>
        <mxCell id="KsnyNKV8xD6eK6TbKihS-89" value="" style="shape=partialRectangle;html=1;whiteSpace=wrap;connectable=0;overflow=hidden;fillColor=none;top=0;left=0;bottom=0;right=0;" parent="KsnyNKV8xD6eK6TbKihS-88" vertex="1">
          <mxGeometry width="141" height="29" as="geometry" />
        </mxCell>
        <mxCell id="KsnyNKV8xD6eK6TbKihS-90" value="" style="shape=partialRectangle;html=1;whiteSpace=wrap;connectable=0;overflow=hidden;fillColor=none;top=0;left=0;bottom=0;right=0;" parent="KsnyNKV8xD6eK6TbKihS-88" vertex="1">
          <mxGeometry x="141" width="139" height="29" as="geometry" />
        </mxCell>
        <mxCell id="KsnyNKV8xD6eK6TbKihS-91" value="" style="shape=partialRectangle;html=1;whiteSpace=wrap;connectable=0;overflow=hidden;fillColor=none;top=0;left=0;bottom=0;right=0;" parent="KsnyNKV8xD6eK6TbKihS-88" vertex="1">
          <mxGeometry x="280" width="141" height="29" as="geometry" />
        </mxCell>
        <mxCell id="KsnyNKV8xD6eK6TbKihS-92" value="" style="shape=partialRectangle;html=1;whiteSpace=wrap;connectable=0;overflow=hidden;fillColor=none;top=0;left=0;bottom=0;right=0;" parent="KsnyNKV8xD6eK6TbKihS-88" vertex="1">
          <mxGeometry x="421" width="139" height="29" as="geometry" />
        </mxCell>
        <mxCell id="KsnyNKV8xD6eK6TbKihS-100" value="Tên hàng hóa" style="text;html=1;strokeColor=none;fillColor=none;align=center;verticalAlign=middle;whiteSpace=wrap;rounded=0;" parent="KsnyNKV8xD6eK6TbKihS-130" vertex="1">
          <mxGeometry x="20" y="80" width="100" height="25" as="geometry" />
        </mxCell>
        <mxCell id="KsnyNKV8xD6eK6TbKihS-101" value="" style="strokeWidth=1;shadow=0;dashed=0;align=center;html=1;shape=mxgraph.mockup.text.textBox;fontColor=#666666;align=left;fontSize=12;spacingLeft=4;spacingTop=-3;strokeColor=#666666;mainText=" parent="KsnyNKV8xD6eK6TbKihS-130" vertex="1">
          <mxGeometry x="120" y="80" width="150" height="25" as="geometry" />
        </mxCell>
        <mxCell id="KsnyNKV8xD6eK6TbKihS-102" value="Đơn giá" style="text;html=1;strokeColor=none;fillColor=none;align=center;verticalAlign=middle;whiteSpace=wrap;rounded=0;" parent="KsnyNKV8xD6eK6TbKihS-130" vertex="1">
          <mxGeometry x="295" y="80" width="100" height="25" as="geometry" />
        </mxCell>
        <mxCell id="KsnyNKV8xD6eK6TbKihS-103" value="" style="strokeWidth=1;shadow=0;dashed=0;align=center;html=1;shape=mxgraph.mockup.text.textBox;fontColor=#666666;align=left;fontSize=12;spacingLeft=4;spacingTop=-3;strokeColor=#666666;mainText=" parent="KsnyNKV8xD6eK6TbKihS-130" vertex="1">
          <mxGeometry x="395" y="80" width="150" height="25" as="geometry" />
        </mxCell>
        <mxCell id="KsnyNKV8xD6eK6TbKihS-104" value="Số lượng" style="text;html=1;strokeColor=none;fillColor=none;align=center;verticalAlign=middle;whiteSpace=wrap;rounded=0;" parent="KsnyNKV8xD6eK6TbKihS-130" vertex="1">
          <mxGeometry x="20" y="110" width="100" height="25" as="geometry" />
        </mxCell>
        <mxCell id="KsnyNKV8xD6eK6TbKihS-105" value="" style="strokeWidth=1;shadow=0;dashed=0;align=center;html=1;shape=mxgraph.mockup.text.textBox;fontColor=#666666;align=left;fontSize=12;spacingLeft=4;spacingTop=-3;strokeColor=#666666;mainText=" parent="KsnyNKV8xD6eK6TbKihS-130" vertex="1">
          <mxGeometry x="120" y="110" width="150" height="25" as="geometry" />
        </mxCell>
        <mxCell id="KsnyNKV8xD6eK6TbKihS-107" value="Lượng tiền đã chi" style="text;html=1;strokeColor=none;fillColor=none;align=center;verticalAlign=middle;whiteSpace=wrap;rounded=0;" parent="KsnyNKV8xD6eK6TbKihS-130" vertex="1">
          <mxGeometry x="295" y="110" width="100" height="25" as="geometry" />
        </mxCell>
        <mxCell id="KsnyNKV8xD6eK6TbKihS-108" value="" style="strokeWidth=1;shadow=0;dashed=0;align=center;html=1;shape=mxgraph.mockup.text.textBox;align=left;fontSize=12;spacingLeft=4;spacingTop=-3;strokeColor=#36393d;mainText=;fillColor=#eeeeee;" parent="KsnyNKV8xD6eK6TbKihS-130" vertex="1">
          <mxGeometry x="395" y="110" width="150" height="25" as="geometry" />
        </mxCell>
        <mxCell id="KsnyNKV8xD6eK6TbKihS-109" value="Thêm hàng hóa" style="strokeWidth=1;shadow=0;dashed=0;align=center;html=1;shape=mxgraph.mockup.buttons.button;strokeColor=#666666;mainText=;buttonStyle=round;fontSize=12;fontStyle=1;fillColor=#f5f5f5;whiteSpace=wrap;gradientColor=#b3b3b3;" parent="KsnyNKV8xD6eK6TbKihS-130" vertex="1">
          <mxGeometry x="10" y="330" width="95" height="30" as="geometry" />
        </mxCell>
        <mxCell id="KsnyNKV8xD6eK6TbKihS-113" value="Xóa hàng hóa" style="strokeWidth=1;shadow=0;dashed=0;align=center;html=1;shape=mxgraph.mockup.buttons.button;strokeColor=#666666;mainText=;buttonStyle=round;fontSize=12;fontStyle=1;fillColor=#f5f5f5;whiteSpace=wrap;gradientColor=#b3b3b3;" parent="KsnyNKV8xD6eK6TbKihS-130" vertex="1">
          <mxGeometry x="110" y="330" width="95" height="30" as="geometry" />
        </mxCell>
        <mxCell id="KsnyNKV8xD6eK6TbKihS-114" value="Sửa hàng hóa" style="strokeWidth=1;shadow=0;dashed=0;align=center;html=1;shape=mxgraph.mockup.buttons.button;strokeColor=#666666;mainText=;buttonStyle=round;fontSize=12;fontStyle=1;fillColor=#f5f5f5;whiteSpace=wrap;gradientColor=#b3b3b3;" parent="KsnyNKV8xD6eK6TbKihS-130" vertex="1">
          <mxGeometry x="210" y="330" width="95" height="30" as="geometry" />
        </mxCell>
        <mxCell id="KsnyNKV8xD6eK6TbKihS-115" value="Thêm chi tiêu" style="strokeWidth=1;shadow=0;dashed=0;align=center;shape=mxgraph.mockup.buttons.button;strokeColor=#666666;mainText=;buttonStyle=round;fontSize=12;fontStyle=1;fillColor=#f5f5f5;gradientColor=#b3b3b3;" parent="KsnyNKV8xD6eK6TbKihS-130" vertex="1">
          <mxGeometry x="435" y="330" width="110" height="30" as="geometry" />
        </mxCell>
        <mxCell id="KsnyNKV8xD6eK6TbKihS-123" value="Quay lại" style="strokeWidth=1;shadow=0;dashed=0;align=center;html=1;shape=mxgraph.mockup.buttons.button;strokeColor=#666666;mainText=;buttonStyle=round;fontSize=12;fontStyle=1;fillColor=#f5f5f5;whiteSpace=wrap;gradientColor=#b3b3b3;" parent="KsnyNKV8xD6eK6TbKihS-130" vertex="1">
          <mxGeometry x="450" y="40" width="95" height="20" as="geometry" />
        </mxCell>
        <mxCell id="09SewAB6d0spETSHWCLL-44" value="Xem thông tin" style="strokeWidth=1;shadow=0;dashed=0;align=center;html=1;shape=mxgraph.mockup.buttons.button;strokeColor=#666666;mainText=;buttonStyle=round;fontSize=12;fontStyle=1;fillColor=#f5f5f5;whiteSpace=wrap;gradientColor=#b3b3b3;" parent="KsnyNKV8xD6eK6TbKihS-130" vertex="1">
          <mxGeometry x="310" y="330" width="95" height="30" as="geometry" />
        </mxCell>
        <mxCell id="KsnyNKV8xD6eK6TbKihS-131" value="" style="group" parent="1" vertex="1" connectable="0">
          <mxGeometry x="950" y="70" width="370" height="230" as="geometry" />
        </mxCell>
        <mxCell id="KsnyNKV8xD6eK6TbKihS-132" value="Thông tin hạn mức" style="strokeWidth=1;shadow=0;dashed=0;align=center;html=1;shape=mxgraph.mockup.containers.window;align=left;verticalAlign=top;spacingLeft=8;strokeColor2=#008cff;strokeColor3=#c4c4c4;fontColor=#666666;mainText=;fontSize=17;labelBackgroundColor=none;" parent="KsnyNKV8xD6eK6TbKihS-131" vertex="1">
          <mxGeometry width="370.00000000000006" height="230" as="geometry" />
        </mxCell>
        <mxCell id="KsnyNKV8xD6eK6TbKihS-174" value="Hạn mức&amp;nbsp;" style="text;html=1;strokeColor=none;fillColor=none;align=center;verticalAlign=middle;whiteSpace=wrap;rounded=0;" parent="KsnyNKV8xD6eK6TbKihS-131" vertex="1">
          <mxGeometry x="40" y="80" width="100" height="25" as="geometry" />
        </mxCell>
        <mxCell id="KsnyNKV8xD6eK6TbKihS-175" value="" style="strokeWidth=1;shadow=0;dashed=0;align=center;html=1;shape=mxgraph.mockup.text.textBox;fontColor=#666666;align=left;fontSize=12;spacingLeft=4;spacingTop=-3;strokeColor=#666666;mainText=" parent="KsnyNKV8xD6eK6TbKihS-131" vertex="1">
          <mxGeometry x="140" y="80" width="150" height="25" as="geometry" />
        </mxCell>
        <mxCell id="KsnyNKV8xD6eK6TbKihS-178" value="Quay lại" style="strokeWidth=1;shadow=0;dashed=0;align=center;shape=mxgraph.mockup.buttons.button;strokeColor=#666666;mainText=;buttonStyle=round;fontSize=12;fontStyle=1;fillColor=#f5f5f5;gradientColor=#b3b3b3;" parent="KsnyNKV8xD6eK6TbKihS-131" vertex="1">
          <mxGeometry x="210" y="180" width="130" height="30" as="geometry" />
        </mxCell>
        <mxCell id="KsnyNKV8xD6eK6TbKihS-179" value="Chỉnh sửa hạn mức" style="strokeWidth=1;shadow=0;dashed=0;align=center;shape=mxgraph.mockup.buttons.button;strokeColor=#666666;mainText=;buttonStyle=round;fontSize=12;fontStyle=1;fillColor=#f5f5f5;gradientColor=#b3b3b3;" parent="KsnyNKV8xD6eK6TbKihS-131" vertex="1">
          <mxGeometry x="40" y="180" width="130" height="30" as="geometry" />
        </mxCell>
        <mxCell id="fEtWrxZ9Q_CUSQm69vdD-7" value="Cảnh báo" style="text;html=1;strokeColor=none;fillColor=none;align=center;verticalAlign=middle;whiteSpace=wrap;rounded=0;" parent="KsnyNKV8xD6eK6TbKihS-131" vertex="1">
          <mxGeometry x="40" y="110" width="100" height="25" as="geometry" />
        </mxCell>
        <mxCell id="fEtWrxZ9Q_CUSQm69vdD-9" value="Option 1" style="strokeWidth=1;shadow=0;dashed=0;align=center;html=1;shape=mxgraph.mockup.forms.comboBox;strokeColor=#999999;fillColor=#ddeeff;align=left;fillColor2=#aaddff;mainText=;fontColor=#666666;fontSize=17;spacingLeft=3;" parent="KsnyNKV8xD6eK6TbKihS-131" vertex="1">
          <mxGeometry x="140" y="110" width="150" height="25" as="geometry" />
        </mxCell>
        <mxCell id="KsnyNKV8xD6eK6TbKihS-176" value="Nếu hạn mức trong cơ sở dữ liệu bằng -1, hiện thị không có" style="whiteSpace=wrap;html=1;shadow=0;dashed=0;align=left;strokeColor=#666666;strokeWidth=1;spacingTop=-3;spacingLeft=4;fillColor=#008CFF;fontColor=#FFFFFF;" parent="1" vertex="1">
          <mxGeometry x="1390" y="132.5" width="120" height="60" as="geometry" />
        </mxCell>
        <mxCell id="KsnyNKV8xD6eK6TbKihS-177" value="" style="edgeStyle=orthogonalEdgeStyle;rounded=0;orthogonalLoop=1;jettySize=auto;html=1;fontSize=12;fontColor=#FFFFFF;" parent="1" source="KsnyNKV8xD6eK6TbKihS-175" target="KsnyNKV8xD6eK6TbKihS-176" edge="1">
          <mxGeometry relative="1" as="geometry" />
        </mxCell>
        <mxCell id="KsnyNKV8xD6eK6TbKihS-180" value="Đặt hạn mức thành công" style="strokeWidth=1;shadow=0;dashed=0;align=center;html=1;shape=mxgraph.mockup.containers.rrect;rSize=0;strokeColor=#666666;fontColor=#666666;fontSize=17;verticalAlign=top;whiteSpace=wrap;fillColor=#ffffff;spacingTop=32;" parent="1" vertex="1">
          <mxGeometry x="840" y="620" width="250" height="140" as="geometry" />
        </mxCell>
        <mxCell id="KsnyNKV8xD6eK6TbKihS-181" value="Thông báo" style="strokeWidth=1;shadow=0;dashed=0;align=center;html=1;shape=mxgraph.mockup.containers.rrect;rSize=0;fontSize=17;fontColor=#666666;strokeColor=#666666;align=left;spacingLeft=8;fillColor=none;resizeWidth=1;" parent="KsnyNKV8xD6eK6TbKihS-180" vertex="1">
          <mxGeometry width="250" height="30" relative="1" as="geometry" />
        </mxCell>
        <mxCell id="KsnyNKV8xD6eK6TbKihS-182" value="" style="shape=ellipse;strokeColor=#008cff;resizable=0;fillColor=none;html=1;" parent="KsnyNKV8xD6eK6TbKihS-181" vertex="1">
          <mxGeometry x="1" y="0.5" width="20" height="20" relative="1" as="geometry">
            <mxPoint x="-25" y="-10" as="offset" />
          </mxGeometry>
        </mxCell>
        <mxCell id="KsnyNKV8xD6eK6TbKihS-184" value="OK" style="strokeWidth=1;shadow=0;dashed=0;align=center;html=1;shape=mxgraph.mockup.containers.rrect;rSize=0;fontSize=16;fontColor=#666666;strokeColor=#c4c4c4;whiteSpace=wrap;fillColor=none;" parent="KsnyNKV8xD6eK6TbKihS-180" vertex="1">
          <mxGeometry x="0.75" y="1" width="90" height="25" relative="1" as="geometry">
            <mxPoint x="-107" y="-32" as="offset" />
          </mxGeometry>
        </mxCell>
        <mxCell id="KsnyNKV8xD6eK6TbKihS-190" value="Sai định dạng&lt;br&gt;Vui lòng nhập lại" style="strokeWidth=1;shadow=0;dashed=0;align=center;html=1;shape=mxgraph.mockup.containers.rrect;rSize=0;strokeColor=#666666;fontColor=#666666;fontSize=17;verticalAlign=top;whiteSpace=wrap;fillColor=#ffffff;spacingTop=32;" parent="1" vertex="1">
          <mxGeometry x="1200" y="620" width="250" height="140" as="geometry" />
        </mxCell>
        <mxCell id="KsnyNKV8xD6eK6TbKihS-191" value="Lỗi" style="strokeWidth=1;shadow=0;dashed=0;align=center;html=1;shape=mxgraph.mockup.containers.rrect;rSize=0;fontSize=17;fontColor=#666666;strokeColor=#666666;align=left;spacingLeft=8;fillColor=none;resizeWidth=1;" parent="KsnyNKV8xD6eK6TbKihS-190" vertex="1">
          <mxGeometry width="250" height="30" relative="1" as="geometry" />
        </mxCell>
        <mxCell id="KsnyNKV8xD6eK6TbKihS-192" value="" style="shape=ellipse;strokeColor=#008cff;resizable=0;fillColor=none;html=1;" parent="KsnyNKV8xD6eK6TbKihS-191" vertex="1">
          <mxGeometry x="1" y="0.5" width="20" height="20" relative="1" as="geometry">
            <mxPoint x="-25" y="-10" as="offset" />
          </mxGeometry>
        </mxCell>
        <mxCell id="KsnyNKV8xD6eK6TbKihS-193" value="Cancel" style="strokeWidth=1;shadow=0;dashed=0;align=center;html=1;shape=mxgraph.mockup.containers.rrect;rSize=0;fontSize=16;fontColor=#666666;strokeColor=#c4c4c4;whiteSpace=wrap;fillColor=none;" parent="KsnyNKV8xD6eK6TbKihS-190" vertex="1">
          <mxGeometry x="0.25" y="1" width="90" height="25" relative="1" as="geometry">
            <mxPoint x="-45" y="-33" as="offset" />
          </mxGeometry>
        </mxCell>
        <mxCell id="KsnyNKV8xD6eK6TbKihS-194" value="OK" style="strokeWidth=1;shadow=0;dashed=0;align=center;html=1;shape=mxgraph.mockup.containers.rrect;rSize=0;fontSize=16;fontColor=#666666;strokeColor=#c4c4c4;whiteSpace=wrap;fillColor=none;" parent="KsnyNKV8xD6eK6TbKihS-190" vertex="1">
          <mxGeometry x="0.75" y="1" width="90" height="25" relative="1" as="geometry">
            <mxPoint x="-45" y="-33" as="offset" />
          </mxGeometry>
        </mxCell>
        <mxCell id="KsnyNKV8xD6eK6TbKihS-207" style="edgeStyle=orthogonalEdgeStyle;rounded=0;orthogonalLoop=1;jettySize=auto;html=1;fontSize=12;fontColor=#FFFFFF;" parent="1" source="KsnyNKV8xD6eK6TbKihS-201" target="KsnyNKV8xD6eK6TbKihS-180" edge="1">
          <mxGeometry relative="1" as="geometry" />
        </mxCell>
        <mxCell id="KsnyNKV8xD6eK6TbKihS-208" style="edgeStyle=orthogonalEdgeStyle;rounded=0;orthogonalLoop=1;jettySize=auto;html=1;fontSize=12;fontColor=#FFFFFF;" parent="1" source="KsnyNKV8xD6eK6TbKihS-201" target="KsnyNKV8xD6eK6TbKihS-190" edge="1">
          <mxGeometry relative="1" as="geometry" />
        </mxCell>
        <mxCell id="KsnyNKV8xD6eK6TbKihS-201" value="Xác nhận đặt hạn mức?" style="strokeWidth=1;shadow=0;dashed=0;align=center;html=1;shape=mxgraph.mockup.containers.rrect;rSize=0;strokeColor=#666666;fontColor=#666666;fontSize=17;verticalAlign=top;whiteSpace=wrap;fillColor=#ffffff;spacingTop=32;" parent="1" vertex="1">
          <mxGeometry x="1010" y="380" width="250" height="140" as="geometry" />
        </mxCell>
        <mxCell id="KsnyNKV8xD6eK6TbKihS-202" value="Xác nhận" style="strokeWidth=1;shadow=0;dashed=0;align=center;html=1;shape=mxgraph.mockup.containers.rrect;rSize=0;fontSize=17;fontColor=#666666;strokeColor=#666666;align=left;spacingLeft=8;fillColor=none;resizeWidth=1;" parent="KsnyNKV8xD6eK6TbKihS-201" vertex="1">
          <mxGeometry width="250" height="30" relative="1" as="geometry" />
        </mxCell>
        <mxCell id="KsnyNKV8xD6eK6TbKihS-203" value="" style="shape=ellipse;strokeColor=#008cff;resizable=0;fillColor=none;html=1;" parent="KsnyNKV8xD6eK6TbKihS-202" vertex="1">
          <mxGeometry x="1" y="0.5" width="20" height="20" relative="1" as="geometry">
            <mxPoint x="-25" y="-10" as="offset" />
          </mxGeometry>
        </mxCell>
        <mxCell id="KsnyNKV8xD6eK6TbKihS-204" value="Cancel" style="strokeWidth=1;shadow=0;dashed=0;align=center;html=1;shape=mxgraph.mockup.containers.rrect;rSize=0;fontSize=16;fontColor=#666666;strokeColor=#c4c4c4;whiteSpace=wrap;fillColor=none;" parent="KsnyNKV8xD6eK6TbKihS-201" vertex="1">
          <mxGeometry x="0.25" y="1" width="90" height="25" relative="1" as="geometry">
            <mxPoint x="-45" y="-33" as="offset" />
          </mxGeometry>
        </mxCell>
        <mxCell id="KsnyNKV8xD6eK6TbKihS-205" value="OK" style="strokeWidth=1;shadow=0;dashed=0;align=center;html=1;shape=mxgraph.mockup.containers.rrect;rSize=0;fontSize=16;fontColor=#666666;strokeColor=#c4c4c4;whiteSpace=wrap;fillColor=none;" parent="KsnyNKV8xD6eK6TbKihS-201" vertex="1">
          <mxGeometry x="0.75" y="1" width="90" height="25" relative="1" as="geometry">
            <mxPoint x="-45" y="-33" as="offset" />
          </mxGeometry>
        </mxCell>
        <mxCell id="KsnyNKV8xD6eK6TbKihS-206" style="edgeStyle=orthogonalEdgeStyle;rounded=0;orthogonalLoop=1;jettySize=auto;html=1;fontSize=12;fontColor=#FFFFFF;" parent="1" source="KsnyNKV8xD6eK6TbKihS-132" target="KsnyNKV8xD6eK6TbKihS-202" edge="1">
          <mxGeometry relative="1" as="geometry" />
        </mxCell>
        <mxCell id="KsnyNKV8xD6eK6TbKihS-129" value="" style="edgeStyle=orthogonalEdgeStyle;rounded=0;orthogonalLoop=1;jettySize=auto;html=1;fontSize=12;" parent="1" source="KsnyNKV8xD6eK6TbKihS-108" target="KsnyNKV8xD6eK6TbKihS-128" edge="1">
          <mxGeometry relative="1" as="geometry" />
        </mxCell>
        <mxCell id="fEtWrxZ9Q_CUSQm69vdD-1" value="Chi tiêu trong tháng còn cách&lt;br&gt;giới hạn &amp;lt;%&amp;gt;" style="strokeWidth=1;shadow=0;dashed=0;align=center;html=1;shape=mxgraph.mockup.containers.rrect;rSize=0;strokeColor=#666666;fontColor=#666666;fontSize=17;verticalAlign=top;whiteSpace=wrap;fillColor=#ffffff;spacingTop=32;" parent="1" vertex="1">
          <mxGeometry x="245" y="680" width="250" height="140" as="geometry" />
        </mxCell>
        <mxCell id="fEtWrxZ9Q_CUSQm69vdD-2" value="Cảnh báo" style="strokeWidth=1;shadow=0;dashed=0;align=center;html=1;shape=mxgraph.mockup.containers.rrect;rSize=0;fontSize=17;fontColor=#666666;strokeColor=#666666;align=left;spacingLeft=8;fillColor=none;resizeWidth=1;" parent="fEtWrxZ9Q_CUSQm69vdD-1" vertex="1">
          <mxGeometry width="250" height="30" relative="1" as="geometry" />
        </mxCell>
        <mxCell id="fEtWrxZ9Q_CUSQm69vdD-3" value="" style="shape=ellipse;strokeColor=#008cff;resizable=0;fillColor=none;html=1;" parent="fEtWrxZ9Q_CUSQm69vdD-2" vertex="1">
          <mxGeometry x="1" y="0.5" width="20" height="20" relative="1" as="geometry">
            <mxPoint x="-25" y="-10" as="offset" />
          </mxGeometry>
        </mxCell>
        <mxCell id="fEtWrxZ9Q_CUSQm69vdD-4" value="Cancel" style="strokeWidth=1;shadow=0;dashed=0;align=center;html=1;shape=mxgraph.mockup.containers.rrect;rSize=0;fontSize=16;fontColor=#666666;strokeColor=#c4c4c4;whiteSpace=wrap;fillColor=none;" parent="fEtWrxZ9Q_CUSQm69vdD-1" vertex="1">
          <mxGeometry x="0.25" y="1" width="90" height="25" relative="1" as="geometry">
            <mxPoint x="-45" y="-33" as="offset" />
          </mxGeometry>
        </mxCell>
        <mxCell id="fEtWrxZ9Q_CUSQm69vdD-5" value="OK" style="strokeWidth=1;shadow=0;dashed=0;align=center;html=1;shape=mxgraph.mockup.containers.rrect;rSize=0;fontSize=16;fontColor=#666666;strokeColor=#c4c4c4;whiteSpace=wrap;fillColor=none;" parent="fEtWrxZ9Q_CUSQm69vdD-1" vertex="1">
          <mxGeometry x="0.75" y="1" width="90" height="25" relative="1" as="geometry">
            <mxPoint x="-45" y="-33" as="offset" />
          </mxGeometry>
        </mxCell>
        <mxCell id="09SewAB6d0spETSHWCLL-45" value="" style="group" parent="1" vertex="1" connectable="0">
          <mxGeometry x="-590" y="50" width="560" height="380" as="geometry" />
        </mxCell>
        <mxCell id="09SewAB6d0spETSHWCLL-46" value="Thống kê chi tiêu tháng" style="strokeWidth=1;shadow=0;dashed=0;align=center;html=1;shape=mxgraph.mockup.containers.window;align=left;verticalAlign=top;spacingLeft=8;strokeColor2=#008cff;strokeColor3=#c4c4c4;fontColor=#666666;mainText=;fontSize=17;labelBackgroundColor=none;" parent="09SewAB6d0spETSHWCLL-45" vertex="1">
          <mxGeometry width="560" height="380" as="geometry" />
        </mxCell>
        <mxCell id="09SewAB6d0spETSHWCLL-47" value="Tháng" style="text;html=1;strokeColor=none;fillColor=none;align=center;verticalAlign=middle;whiteSpace=wrap;rounded=0;" parent="09SewAB6d0spETSHWCLL-45" vertex="1">
          <mxGeometry x="20" y="50" width="100" height="25" as="geometry" />
        </mxCell>
        <mxCell id="09SewAB6d0spETSHWCLL-48" value="" style="strokeWidth=1;shadow=0;dashed=0;align=center;html=1;shape=mxgraph.mockup.text.textBox;fontColor=#666666;align=left;fontSize=12;spacingLeft=4;spacingTop=-3;strokeColor=#666666;mainText=" parent="09SewAB6d0spETSHWCLL-45" vertex="1">
          <mxGeometry x="120" y="50" width="150" height="25" as="geometry" />
        </mxCell>
        <mxCell id="09SewAB6d0spETSHWCLL-49" value="" style="shape=table;html=1;whiteSpace=wrap;startSize=0;container=1;collapsible=0;childLayout=tableLayout;" parent="09SewAB6d0spETSHWCLL-45" vertex="1">
          <mxGeometry y="170" width="560" height="140" as="geometry" />
        </mxCell>
        <mxCell id="09SewAB6d0spETSHWCLL-50" value="" style="shape=partialRectangle;html=1;whiteSpace=wrap;collapsible=0;dropTarget=0;pointerEvents=0;fillColor=none;top=0;left=0;bottom=0;right=0;points=[[0,0.5],[1,0.5]];portConstraint=eastwest;" parent="09SewAB6d0spETSHWCLL-49" vertex="1">
          <mxGeometry width="560" height="25" as="geometry" />
        </mxCell>
        <mxCell id="09SewAB6d0spETSHWCLL-51" value="Mã giao dich" style="shape=partialRectangle;html=1;whiteSpace=wrap;connectable=0;overflow=hidden;fillColor=#f5f5f5;top=0;left=0;bottom=0;right=0;strokeColor=#666666;gradientDirection=south;gradientColor=#b3b3b3;" parent="09SewAB6d0spETSHWCLL-50" vertex="1">
          <mxGeometry width="188" height="25" as="geometry" />
        </mxCell>
        <mxCell id="09SewAB6d0spETSHWCLL-52" value="Ngày giao dịch" style="shape=partialRectangle;html=1;whiteSpace=wrap;connectable=0;overflow=hidden;fillColor=#f5f5f5;top=0;left=0;bottom=0;right=0;strokeColor=#666666;gradientDirection=south;gradientColor=#b3b3b3;" parent="09SewAB6d0spETSHWCLL-50" vertex="1">
          <mxGeometry x="188" width="184" height="25" as="geometry" />
        </mxCell>
        <mxCell id="09SewAB6d0spETSHWCLL-53" value="Lượng tiền" style="shape=partialRectangle;html=1;whiteSpace=wrap;connectable=0;overflow=hidden;fillColor=#f5f5f5;top=0;left=0;bottom=0;right=0;strokeColor=#666666;gradientDirection=south;gradientColor=#b3b3b3;" parent="09SewAB6d0spETSHWCLL-50" vertex="1">
          <mxGeometry x="372" width="188" height="25" as="geometry" />
        </mxCell>
        <mxCell id="09SewAB6d0spETSHWCLL-55" value="" style="shape=partialRectangle;html=1;whiteSpace=wrap;collapsible=0;dropTarget=0;pointerEvents=0;fillColor=none;top=0;left=0;bottom=0;right=0;points=[[0,0.5],[1,0.5]];portConstraint=eastwest;" parent="09SewAB6d0spETSHWCLL-49" vertex="1">
          <mxGeometry y="25" width="560" height="28" as="geometry" />
        </mxCell>
        <mxCell id="09SewAB6d0spETSHWCLL-56" value="" style="shape=partialRectangle;html=1;whiteSpace=wrap;connectable=0;overflow=hidden;fillColor=none;top=0;left=0;bottom=0;right=0;" parent="09SewAB6d0spETSHWCLL-55" vertex="1">
          <mxGeometry width="188" height="28" as="geometry" />
        </mxCell>
        <mxCell id="09SewAB6d0spETSHWCLL-57" value="" style="shape=partialRectangle;html=1;whiteSpace=wrap;connectable=0;overflow=hidden;fillColor=none;top=0;left=0;bottom=0;right=0;" parent="09SewAB6d0spETSHWCLL-55" vertex="1">
          <mxGeometry x="188" width="184" height="28" as="geometry" />
        </mxCell>
        <mxCell id="09SewAB6d0spETSHWCLL-58" value="" style="shape=partialRectangle;html=1;whiteSpace=wrap;connectable=0;overflow=hidden;fillColor=none;top=0;left=0;bottom=0;right=0;" parent="09SewAB6d0spETSHWCLL-55" vertex="1">
          <mxGeometry x="372" width="188" height="28" as="geometry" />
        </mxCell>
        <mxCell id="09SewAB6d0spETSHWCLL-60" value="" style="shape=partialRectangle;html=1;whiteSpace=wrap;collapsible=0;dropTarget=0;pointerEvents=0;fillColor=none;top=0;left=0;bottom=0;right=0;points=[[0,0.5],[1,0.5]];portConstraint=eastwest;" parent="09SewAB6d0spETSHWCLL-49" vertex="1">
          <mxGeometry y="53" width="560" height="29" as="geometry" />
        </mxCell>
        <mxCell id="09SewAB6d0spETSHWCLL-61" value="" style="shape=partialRectangle;html=1;whiteSpace=wrap;connectable=0;overflow=hidden;fillColor=none;top=0;left=0;bottom=0;right=0;" parent="09SewAB6d0spETSHWCLL-60" vertex="1">
          <mxGeometry width="188" height="29" as="geometry" />
        </mxCell>
        <mxCell id="09SewAB6d0spETSHWCLL-62" value="" style="shape=partialRectangle;html=1;whiteSpace=wrap;connectable=0;overflow=hidden;fillColor=none;top=0;left=0;bottom=0;right=0;" parent="09SewAB6d0spETSHWCLL-60" vertex="1">
          <mxGeometry x="188" width="184" height="29" as="geometry" />
        </mxCell>
        <mxCell id="09SewAB6d0spETSHWCLL-63" value="" style="shape=partialRectangle;html=1;whiteSpace=wrap;connectable=0;overflow=hidden;fillColor=none;top=0;left=0;bottom=0;right=0;" parent="09SewAB6d0spETSHWCLL-60" vertex="1">
          <mxGeometry x="372" width="188" height="29" as="geometry" />
        </mxCell>
        <mxCell id="09SewAB6d0spETSHWCLL-65" value="" style="shape=partialRectangle;html=1;whiteSpace=wrap;collapsible=0;dropTarget=0;pointerEvents=0;fillColor=none;top=0;left=0;bottom=0;right=0;points=[[0,0.5],[1,0.5]];portConstraint=eastwest;" parent="09SewAB6d0spETSHWCLL-49" vertex="1">
          <mxGeometry y="82" width="560" height="29" as="geometry" />
        </mxCell>
        <mxCell id="09SewAB6d0spETSHWCLL-66" value="" style="shape=partialRectangle;html=1;whiteSpace=wrap;connectable=0;overflow=hidden;fillColor=none;top=0;left=0;bottom=0;right=0;" parent="09SewAB6d0spETSHWCLL-65" vertex="1">
          <mxGeometry width="188" height="29" as="geometry" />
        </mxCell>
        <mxCell id="09SewAB6d0spETSHWCLL-67" value="" style="shape=partialRectangle;html=1;whiteSpace=wrap;connectable=0;overflow=hidden;fillColor=none;top=0;left=0;bottom=0;right=0;" parent="09SewAB6d0spETSHWCLL-65" vertex="1">
          <mxGeometry x="188" width="184" height="29" as="geometry" />
        </mxCell>
        <mxCell id="09SewAB6d0spETSHWCLL-68" value="" style="shape=partialRectangle;html=1;whiteSpace=wrap;connectable=0;overflow=hidden;fillColor=none;top=0;left=0;bottom=0;right=0;" parent="09SewAB6d0spETSHWCLL-65" vertex="1">
          <mxGeometry x="372" width="188" height="29" as="geometry" />
        </mxCell>
        <mxCell id="09SewAB6d0spETSHWCLL-70" value="" style="shape=partialRectangle;html=1;whiteSpace=wrap;collapsible=0;dropTarget=0;pointerEvents=0;fillColor=none;top=0;left=0;bottom=0;right=0;points=[[0,0.5],[1,0.5]];portConstraint=eastwest;" parent="09SewAB6d0spETSHWCLL-49" vertex="1">
          <mxGeometry y="111" width="560" height="29" as="geometry" />
        </mxCell>
        <mxCell id="09SewAB6d0spETSHWCLL-71" value="" style="shape=partialRectangle;html=1;whiteSpace=wrap;connectable=0;overflow=hidden;fillColor=none;top=0;left=0;bottom=0;right=0;" parent="09SewAB6d0spETSHWCLL-70" vertex="1">
          <mxGeometry width="188" height="29" as="geometry" />
        </mxCell>
        <mxCell id="09SewAB6d0spETSHWCLL-72" value="" style="shape=partialRectangle;html=1;whiteSpace=wrap;connectable=0;overflow=hidden;fillColor=none;top=0;left=0;bottom=0;right=0;" parent="09SewAB6d0spETSHWCLL-70" vertex="1">
          <mxGeometry x="188" width="184" height="29" as="geometry" />
        </mxCell>
        <mxCell id="09SewAB6d0spETSHWCLL-73" value="" style="shape=partialRectangle;html=1;whiteSpace=wrap;connectable=0;overflow=hidden;fillColor=none;top=0;left=0;bottom=0;right=0;" parent="09SewAB6d0spETSHWCLL-70" vertex="1">
          <mxGeometry x="372" width="188" height="29" as="geometry" />
        </mxCell>
        <mxCell id="09SewAB6d0spETSHWCLL-75" value="Ngày sử dụng nhiều nhất" style="text;html=1;strokeColor=none;fillColor=none;align=center;verticalAlign=middle;whiteSpace=wrap;rounded=0;" parent="09SewAB6d0spETSHWCLL-45" vertex="1">
          <mxGeometry x="20" y="80" width="100" height="25" as="geometry" />
        </mxCell>
        <mxCell id="09SewAB6d0spETSHWCLL-76" value="" style="strokeWidth=1;shadow=0;dashed=0;align=center;html=1;shape=mxgraph.mockup.text.textBox;align=left;fontSize=12;spacingLeft=4;spacingTop=-3;strokeColor=#36393d;mainText=;fillColor=#eeeeee;" parent="09SewAB6d0spETSHWCLL-45" vertex="1">
          <mxGeometry x="120" y="80" width="150" height="25" as="geometry" />
        </mxCell>
        <mxCell id="09SewAB6d0spETSHWCLL-77" value="Cách hạn mức:" style="text;html=1;strokeColor=none;fillColor=none;align=center;verticalAlign=middle;whiteSpace=wrap;rounded=0;" parent="09SewAB6d0spETSHWCLL-45" vertex="1">
          <mxGeometry x="20" y="110" width="100" height="25" as="geometry" />
        </mxCell>
        <mxCell id="09SewAB6d0spETSHWCLL-78" value="" style="strokeWidth=1;shadow=0;dashed=0;align=center;html=1;shape=mxgraph.mockup.text.textBox;align=left;fontSize=12;spacingLeft=4;spacingTop=-3;strokeColor=#36393d;mainText=;fillColor=#eeeeee;" parent="09SewAB6d0spETSHWCLL-45" vertex="1">
          <mxGeometry x="120" y="110" width="150" height="25" as="geometry" />
        </mxCell>
        <mxCell id="09SewAB6d0spETSHWCLL-81" value="Lượng tiền đã chi" style="text;html=1;strokeColor=none;fillColor=none;align=center;verticalAlign=middle;whiteSpace=wrap;rounded=0;" parent="09SewAB6d0spETSHWCLL-45" vertex="1">
          <mxGeometry x="295" y="110" width="100" height="25" as="geometry" />
        </mxCell>
        <mxCell id="09SewAB6d0spETSHWCLL-82" value="" style="strokeWidth=1;shadow=0;dashed=0;align=center;html=1;shape=mxgraph.mockup.text.textBox;align=left;fontSize=12;spacingLeft=4;spacingTop=-3;strokeColor=#36393d;mainText=;fillColor=#eeeeee;" parent="09SewAB6d0spETSHWCLL-45" vertex="1">
          <mxGeometry x="395" y="110" width="150" height="25" as="geometry" />
        </mxCell>
        <mxCell id="09SewAB6d0spETSHWCLL-87" value="Quay lại" style="strokeWidth=1;shadow=0;dashed=0;align=center;html=1;shape=mxgraph.mockup.buttons.button;strokeColor=#666666;mainText=;buttonStyle=round;fontSize=12;fontStyle=1;fillColor=#f5f5f5;whiteSpace=wrap;gradientColor=#b3b3b3;" parent="09SewAB6d0spETSHWCLL-45" vertex="1">
          <mxGeometry x="450" y="40" width="95" height="20" as="geometry" />
        </mxCell>
        <mxCell id="09SewAB6d0spETSHWCLL-88" value="Xem thông tin" style="strokeWidth=1;shadow=0;dashed=0;align=center;html=1;shape=mxgraph.mockup.buttons.button;strokeColor=#666666;mainText=;buttonStyle=round;fontSize=12;fontStyle=1;fillColor=#f5f5f5;whiteSpace=wrap;gradientColor=#b3b3b3;" parent="09SewAB6d0spETSHWCLL-45" vertex="1">
          <mxGeometry x="450" y="330" width="95" height="30" as="geometry" />
        </mxCell>
        <mxCell id="zOUMmwGg_xpKz38YwSDY-8" value="" style="group" vertex="1" connectable="0" parent="1">
          <mxGeometry x="90" y="-430" width="550" height="380" as="geometry" />
        </mxCell>
        <mxCell id="zOUMmwGg_xpKz38YwSDY-2" value="Window Title" style="strokeWidth=1;shadow=0;dashed=0;align=center;html=1;shape=mxgraph.mockup.containers.window;align=left;verticalAlign=top;spacingLeft=8;strokeColor2=#008cff;strokeColor3=#c4c4c4;fontColor=#666666;mainText=;fontSize=17;labelBackgroundColor=none;" vertex="1" parent="zOUMmwGg_xpKz38YwSDY-8">
          <mxGeometry width="550" height="380" as="geometry" />
        </mxCell>
        <mxCell id="zOUMmwGg_xpKz38YwSDY-3" value="&lt;b style=&quot;font-size: 19px;&quot;&gt;QUẢN LÝ CHI TIÊU&lt;/b&gt;" style="text;html=1;strokeColor=none;fillColor=none;align=center;verticalAlign=middle;whiteSpace=wrap;rounded=0;fontSize=19;" vertex="1" parent="zOUMmwGg_xpKz38YwSDY-8">
          <mxGeometry x="150" y="60" width="210" height="40" as="geometry" />
        </mxCell>
        <mxCell id="zOUMmwGg_xpKz38YwSDY-4" value="Chỉnh sửa chi tiêu" style="strokeWidth=1;shadow=0;dashed=0;align=center;html=1;shape=mxgraph.mockup.buttons.button;strokeColor=#666666;mainText=;buttonStyle=round;fontSize=12;fontStyle=1;fillColor=#f5f5f5;whiteSpace=wrap;gradientColor=#b3b3b3;" vertex="1" parent="zOUMmwGg_xpKz38YwSDY-8">
          <mxGeometry x="190" y="175" width="130" height="30" as="geometry" />
        </mxCell>
        <mxCell id="zOUMmwGg_xpKz38YwSDY-5" value="Kiểm tra lịch sử" style="strokeWidth=1;shadow=0;dashed=0;align=center;html=1;shape=mxgraph.mockup.buttons.button;strokeColor=#666666;mainText=;buttonStyle=round;fontSize=12;fontStyle=1;fillColor=#f5f5f5;whiteSpace=wrap;gradientColor=#b3b3b3;" vertex="1" parent="zOUMmwGg_xpKz38YwSDY-8">
          <mxGeometry x="190" y="130" width="130" height="30" as="geometry" />
        </mxCell>
        <mxCell id="zOUMmwGg_xpKz38YwSDY-6" value="Thống kê tháng" style="strokeWidth=1;shadow=0;dashed=0;align=center;html=1;shape=mxgraph.mockup.buttons.button;strokeColor=#666666;mainText=;buttonStyle=round;fontSize=12;fontStyle=1;fillColor=#f5f5f5;whiteSpace=wrap;gradientColor=#b3b3b3;" vertex="1" parent="zOUMmwGg_xpKz38YwSDY-8">
          <mxGeometry x="190" y="220" width="130" height="30" as="geometry" />
        </mxCell>
        <mxCell id="zOUMmwGg_xpKz38YwSDY-30" value="Hạn mức chi tiêu" style="strokeWidth=1;shadow=0;dashed=0;align=center;html=1;shape=mxgraph.mockup.buttons.button;strokeColor=#666666;mainText=;buttonStyle=round;fontSize=12;fontStyle=1;fillColor=#f5f5f5;whiteSpace=wrap;gradientColor=#b3b3b3;" vertex="1" parent="zOUMmwGg_xpKz38YwSDY-8">
          <mxGeometry x="190" y="270" width="130" height="30" as="geometry" />
        </mxCell>
        <mxCell id="zOUMmwGg_xpKz38YwSDY-38" value="Đăng xuất" style="strokeWidth=1;shadow=0;dashed=0;align=center;html=1;shape=mxgraph.mockup.buttons.button;strokeColor=#666666;mainText=;buttonStyle=round;fontSize=12;fontStyle=1;fillColor=#f5f5f5;whiteSpace=wrap;gradientColor=#b3b3b3;" vertex="1" parent="zOUMmwGg_xpKz38YwSDY-8">
          <mxGeometry x="390" y="330" width="130" height="20" as="geometry" />
        </mxCell>
        <mxCell id="zOUMmwGg_xpKz38YwSDY-9" value="" style="group" vertex="1" connectable="0" parent="1">
          <mxGeometry x="90" y="-870" width="550" height="380" as="geometry" />
        </mxCell>
        <mxCell id="zOUMmwGg_xpKz38YwSDY-10" value="Window Title" style="strokeWidth=1;shadow=0;dashed=0;align=center;html=1;shape=mxgraph.mockup.containers.window;align=left;verticalAlign=top;spacingLeft=8;strokeColor2=#008cff;strokeColor3=#c4c4c4;fontColor=#666666;mainText=;fontSize=17;labelBackgroundColor=none;" vertex="1" parent="zOUMmwGg_xpKz38YwSDY-9">
          <mxGeometry width="550" height="380" as="geometry" />
        </mxCell>
        <mxCell id="zOUMmwGg_xpKz38YwSDY-11" value="&lt;b&gt;Đăng nhập&lt;/b&gt;" style="text;html=1;strokeColor=none;fillColor=none;align=center;verticalAlign=middle;whiteSpace=wrap;rounded=0;fontSize=19;" vertex="1" parent="zOUMmwGg_xpKz38YwSDY-9">
          <mxGeometry x="160" y="40" width="210" height="40" as="geometry" />
        </mxCell>
        <mxCell id="zOUMmwGg_xpKz38YwSDY-31" value="" style="strokeWidth=1;shadow=0;dashed=0;align=center;html=1;shape=mxgraph.mockup.forms.pwField;strokeColor=#999999;mainText=;align=left;fontColor=#666666;fontSize=17;spacingLeft=3;" vertex="1" parent="zOUMmwGg_xpKz38YwSDY-9">
          <mxGeometry x="190" y="140" width="150" height="30" as="geometry" />
        </mxCell>
        <mxCell id="zOUMmwGg_xpKz38YwSDY-32" value="Tên đặng nhập" style="text;html=1;strokeColor=none;fillColor=none;align=center;verticalAlign=middle;whiteSpace=wrap;rounded=0;fontSize=13;" vertex="1" parent="zOUMmwGg_xpKz38YwSDY-9">
          <mxGeometry x="190" y="110" width="150" height="20" as="geometry" />
        </mxCell>
        <mxCell id="zOUMmwGg_xpKz38YwSDY-33" value="********" style="strokeWidth=1;shadow=0;dashed=0;align=center;html=1;shape=mxgraph.mockup.forms.pwField;strokeColor=#999999;mainText=;align=left;fontColor=#666666;fontSize=17;spacingLeft=3;" vertex="1" parent="zOUMmwGg_xpKz38YwSDY-9">
          <mxGeometry x="190" y="220" width="150" height="30" as="geometry" />
        </mxCell>
        <mxCell id="zOUMmwGg_xpKz38YwSDY-34" value="Mật khẩu" style="text;html=1;strokeColor=none;fillColor=none;align=center;verticalAlign=middle;whiteSpace=wrap;rounded=0;fontSize=13;" vertex="1" parent="zOUMmwGg_xpKz38YwSDY-9">
          <mxGeometry x="190" y="190" width="150" height="20" as="geometry" />
        </mxCell>
        <mxCell id="zOUMmwGg_xpKz38YwSDY-35" value="Đăng nhập" style="strokeWidth=1;shadow=0;dashed=0;align=center;html=1;shape=mxgraph.mockup.buttons.button;strokeColor=#666666;mainText=;buttonStyle=round;fontSize=12;fontStyle=1;fillColor=#f5f5f5;whiteSpace=wrap;gradientColor=#b3b3b3;" vertex="1" parent="zOUMmwGg_xpKz38YwSDY-9">
          <mxGeometry x="190" y="290" width="70" height="30" as="geometry" />
        </mxCell>
        <mxCell id="zOUMmwGg_xpKz38YwSDY-40" value="Đăng ký" style="strokeWidth=1;shadow=0;dashed=0;align=center;html=1;shape=mxgraph.mockup.buttons.button;strokeColor=#666666;mainText=;buttonStyle=round;fontSize=12;fontStyle=1;fillColor=#f5f5f5;whiteSpace=wrap;gradientColor=#b3b3b3;" vertex="1" parent="zOUMmwGg_xpKz38YwSDY-9">
          <mxGeometry x="270" y="290" width="70" height="30" as="geometry" />
        </mxCell>
        <mxCell id="zOUMmwGg_xpKz38YwSDY-15" value="Thời gian" style="strokeWidth=1;shadow=0;dashed=0;align=center;html=1;shape=mxgraph.mockup.containers.window;align=left;verticalAlign=top;spacingLeft=8;strokeColor2=#008cff;strokeColor3=#c4c4c4;fontColor=#666666;mainText=;fontSize=17;labelBackgroundColor=none;" vertex="1" parent="1">
          <mxGeometry x="-550" y="540" width="430" height="120" as="geometry" />
        </mxCell>
        <mxCell id="zOUMmwGg_xpKz38YwSDY-22" value="Giờ:" style="text;html=1;strokeColor=none;fillColor=none;align=center;verticalAlign=middle;whiteSpace=wrap;rounded=0;fontSize=19;" vertex="1" parent="1">
          <mxGeometry x="-520" y="600" width="50" height="30" as="geometry" />
        </mxCell>
        <mxCell id="zOUMmwGg_xpKz38YwSDY-23" value="" style="strokeWidth=1;shadow=0;dashed=0;align=center;html=1;shape=mxgraph.mockup.forms.spinner;strokeColor=#999999;spinLayout=right;spinStyle=normal;adjStyle=triangle;fillColor=#aaddff;fontSize=17;fontColor=#666666;mainText=;html=1;overflow=fill;" vertex="1" parent="1">
          <mxGeometry x="-470" y="600" width="50" height="30" as="geometry" />
        </mxCell>
        <mxCell id="zOUMmwGg_xpKz38YwSDY-26" value="Phút:" style="text;html=1;strokeColor=none;fillColor=none;align=center;verticalAlign=middle;whiteSpace=wrap;rounded=0;fontSize=19;" vertex="1" parent="1">
          <mxGeometry x="-400" y="600" width="50" height="30" as="geometry" />
        </mxCell>
        <mxCell id="zOUMmwGg_xpKz38YwSDY-27" value="" style="strokeWidth=1;shadow=0;dashed=0;align=center;html=1;shape=mxgraph.mockup.forms.spinner;strokeColor=#999999;spinLayout=right;spinStyle=normal;adjStyle=triangle;fillColor=#aaddff;fontSize=17;fontColor=#666666;mainText=;html=1;overflow=fill;" vertex="1" parent="1">
          <mxGeometry x="-350" y="600" width="50" height="30" as="geometry" />
        </mxCell>
        <mxCell id="zOUMmwGg_xpKz38YwSDY-28" value="Giây:" style="text;html=1;strokeColor=none;fillColor=none;align=center;verticalAlign=middle;whiteSpace=wrap;rounded=0;fontSize=19;" vertex="1" parent="1">
          <mxGeometry x="-270" y="600" width="50" height="30" as="geometry" />
        </mxCell>
        <mxCell id="zOUMmwGg_xpKz38YwSDY-29" value="" style="strokeWidth=1;shadow=0;dashed=0;align=center;html=1;shape=mxgraph.mockup.forms.spinner;strokeColor=#999999;spinLayout=right;spinStyle=normal;adjStyle=triangle;fillColor=#aaddff;fontSize=17;fontColor=#666666;mainText=;html=1;overflow=fill;" vertex="1" parent="1">
          <mxGeometry x="-220" y="600" width="50" height="30" as="geometry" />
        </mxCell>
        <mxCell id="zOUMmwGg_xpKz38YwSDY-41" value="Sai mật khẩu hoặc&lt;br&gt;tên đăng nhập" style="strokeWidth=1;shadow=0;dashed=0;align=center;html=1;shape=mxgraph.mockup.containers.rrect;rSize=0;strokeColor=#666666;fontColor=#666666;fontSize=17;verticalAlign=top;whiteSpace=wrap;fillColor=#ffffff;spacingTop=32;" vertex="1" parent="1">
          <mxGeometry x="-330" y="-900" width="250" height="140" as="geometry" />
        </mxCell>
        <mxCell id="zOUMmwGg_xpKz38YwSDY-42" value="Lỗi" style="strokeWidth=1;shadow=0;dashed=0;align=center;html=1;shape=mxgraph.mockup.containers.rrect;rSize=0;fontSize=17;fontColor=#666666;strokeColor=#666666;align=left;spacingLeft=8;fillColor=none;resizeWidth=1;" vertex="1" parent="zOUMmwGg_xpKz38YwSDY-41">
          <mxGeometry width="250" height="30" relative="1" as="geometry" />
        </mxCell>
        <mxCell id="zOUMmwGg_xpKz38YwSDY-43" value="" style="shape=ellipse;strokeColor=#008cff;resizable=0;fillColor=none;html=1;" vertex="1" parent="zOUMmwGg_xpKz38YwSDY-42">
          <mxGeometry x="1" y="0.5" width="20" height="20" relative="1" as="geometry">
            <mxPoint x="-25" y="-10" as="offset" />
          </mxGeometry>
        </mxCell>
        <mxCell id="zOUMmwGg_xpKz38YwSDY-44" value="Cancel" style="strokeWidth=1;shadow=0;dashed=0;align=center;html=1;shape=mxgraph.mockup.containers.rrect;rSize=0;fontSize=16;fontColor=#666666;strokeColor=#c4c4c4;whiteSpace=wrap;fillColor=none;" vertex="1" parent="zOUMmwGg_xpKz38YwSDY-41">
          <mxGeometry x="0.25" y="1" width="90" height="25" relative="1" as="geometry">
            <mxPoint x="-45" y="-33" as="offset" />
          </mxGeometry>
        </mxCell>
        <mxCell id="zOUMmwGg_xpKz38YwSDY-45" value="OK" style="strokeWidth=1;shadow=0;dashed=0;align=center;html=1;shape=mxgraph.mockup.containers.rrect;rSize=0;fontSize=16;fontColor=#666666;strokeColor=#c4c4c4;whiteSpace=wrap;fillColor=none;" vertex="1" parent="zOUMmwGg_xpKz38YwSDY-41">
          <mxGeometry x="0.75" y="1" width="90" height="25" relative="1" as="geometry">
            <mxPoint x="-45" y="-33" as="offset" />
          </mxGeometry>
        </mxCell>
        <mxCell id="zOUMmwGg_xpKz38YwSDY-46" value="Đăng nhập thành công" style="strokeWidth=1;shadow=0;dashed=0;align=center;html=1;shape=mxgraph.mockup.containers.rrect;rSize=0;strokeColor=#666666;fontColor=#666666;fontSize=17;verticalAlign=top;whiteSpace=wrap;fillColor=#ffffff;spacingTop=32;" vertex="1" parent="1">
          <mxGeometry x="-330" y="-720" width="250" height="140" as="geometry" />
        </mxCell>
        <mxCell id="zOUMmwGg_xpKz38YwSDY-47" value="Đăng nhập" style="strokeWidth=1;shadow=0;dashed=0;align=center;html=1;shape=mxgraph.mockup.containers.rrect;rSize=0;fontSize=17;fontColor=#666666;strokeColor=#666666;align=left;spacingLeft=8;fillColor=none;resizeWidth=1;" vertex="1" parent="zOUMmwGg_xpKz38YwSDY-46">
          <mxGeometry width="250" height="30" relative="1" as="geometry" />
        </mxCell>
        <mxCell id="zOUMmwGg_xpKz38YwSDY-48" value="" style="shape=ellipse;strokeColor=#008cff;resizable=0;fillColor=none;html=1;" vertex="1" parent="zOUMmwGg_xpKz38YwSDY-47">
          <mxGeometry x="1" y="0.5" width="20" height="20" relative="1" as="geometry">
            <mxPoint x="-25" y="-10" as="offset" />
          </mxGeometry>
        </mxCell>
        <mxCell id="zOUMmwGg_xpKz38YwSDY-49" value="Cancel" style="strokeWidth=1;shadow=0;dashed=0;align=center;html=1;shape=mxgraph.mockup.containers.rrect;rSize=0;fontSize=16;fontColor=#666666;strokeColor=#c4c4c4;whiteSpace=wrap;fillColor=none;" vertex="1" parent="zOUMmwGg_xpKz38YwSDY-46">
          <mxGeometry x="0.25" y="1" width="90" height="25" relative="1" as="geometry">
            <mxPoint x="-45" y="-33" as="offset" />
          </mxGeometry>
        </mxCell>
        <mxCell id="zOUMmwGg_xpKz38YwSDY-50" value="OK" style="strokeWidth=1;shadow=0;dashed=0;align=center;html=1;shape=mxgraph.mockup.containers.rrect;rSize=0;fontSize=16;fontColor=#666666;strokeColor=#c4c4c4;whiteSpace=wrap;fillColor=none;" vertex="1" parent="zOUMmwGg_xpKz38YwSDY-46">
          <mxGeometry x="0.75" y="1" width="90" height="25" relative="1" as="geometry">
            <mxPoint x="-45" y="-33" as="offset" />
          </mxGeometry>
        </mxCell>
        <mxCell id="zOUMmwGg_xpKz38YwSDY-51" value="Đăng kí thành công" style="strokeWidth=1;shadow=0;dashed=0;align=center;html=1;shape=mxgraph.mockup.containers.rrect;rSize=0;strokeColor=#666666;fontColor=#666666;fontSize=17;verticalAlign=top;whiteSpace=wrap;fillColor=#ffffff;spacingTop=32;" vertex="1" parent="1">
          <mxGeometry x="-330" y="-550" width="250" height="140" as="geometry" />
        </mxCell>
        <mxCell id="zOUMmwGg_xpKz38YwSDY-52" value="Đăng kí" style="strokeWidth=1;shadow=0;dashed=0;align=center;html=1;shape=mxgraph.mockup.containers.rrect;rSize=0;fontSize=17;fontColor=#666666;strokeColor=#666666;align=left;spacingLeft=8;fillColor=none;resizeWidth=1;" vertex="1" parent="zOUMmwGg_xpKz38YwSDY-51">
          <mxGeometry width="250" height="30" relative="1" as="geometry" />
        </mxCell>
        <mxCell id="zOUMmwGg_xpKz38YwSDY-53" value="" style="shape=ellipse;strokeColor=#008cff;resizable=0;fillColor=none;html=1;" vertex="1" parent="zOUMmwGg_xpKz38YwSDY-52">
          <mxGeometry x="1" y="0.5" width="20" height="20" relative="1" as="geometry">
            <mxPoint x="-25" y="-10" as="offset" />
          </mxGeometry>
        </mxCell>
        <mxCell id="zOUMmwGg_xpKz38YwSDY-54" value="Cancel" style="strokeWidth=1;shadow=0;dashed=0;align=center;html=1;shape=mxgraph.mockup.containers.rrect;rSize=0;fontSize=16;fontColor=#666666;strokeColor=#c4c4c4;whiteSpace=wrap;fillColor=none;" vertex="1" parent="zOUMmwGg_xpKz38YwSDY-51">
          <mxGeometry x="0.25" y="1" width="90" height="25" relative="1" as="geometry">
            <mxPoint x="-45" y="-33" as="offset" />
          </mxGeometry>
        </mxCell>
        <mxCell id="zOUMmwGg_xpKz38YwSDY-55" value="OK" style="strokeWidth=1;shadow=0;dashed=0;align=center;html=1;shape=mxgraph.mockup.containers.rrect;rSize=0;fontSize=16;fontColor=#666666;strokeColor=#c4c4c4;whiteSpace=wrap;fillColor=none;" vertex="1" parent="zOUMmwGg_xpKz38YwSDY-51">
          <mxGeometry x="0.75" y="1" width="90" height="25" relative="1" as="geometry">
            <mxPoint x="-45" y="-33" as="offset" />
          </mxGeometry>
        </mxCell>
        <mxCell id="zOUMmwGg_xpKz38YwSDY-58" value="Tên người dùng đã tồn tại" style="strokeWidth=1;shadow=0;dashed=0;align=center;html=1;shape=mxgraph.mockup.containers.rrect;rSize=0;strokeColor=#666666;fontColor=#666666;fontSize=17;verticalAlign=top;whiteSpace=wrap;fillColor=#ffffff;spacingTop=32;" vertex="1" parent="1">
          <mxGeometry x="-330" y="-370" width="250" height="140" as="geometry" />
        </mxCell>
        <mxCell id="zOUMmwGg_xpKz38YwSDY-59" value="Lỗi" style="strokeWidth=1;shadow=0;dashed=0;align=center;html=1;shape=mxgraph.mockup.containers.rrect;rSize=0;fontSize=17;fontColor=#666666;strokeColor=#666666;align=left;spacingLeft=8;fillColor=none;resizeWidth=1;" vertex="1" parent="zOUMmwGg_xpKz38YwSDY-58">
          <mxGeometry width="250" height="30" relative="1" as="geometry" />
        </mxCell>
        <mxCell id="zOUMmwGg_xpKz38YwSDY-60" value="" style="shape=ellipse;strokeColor=#008cff;resizable=0;fillColor=none;html=1;" vertex="1" parent="zOUMmwGg_xpKz38YwSDY-59">
          <mxGeometry x="1" y="0.5" width="20" height="20" relative="1" as="geometry">
            <mxPoint x="-25" y="-10" as="offset" />
          </mxGeometry>
        </mxCell>
        <mxCell id="zOUMmwGg_xpKz38YwSDY-61" value="Cancel" style="strokeWidth=1;shadow=0;dashed=0;align=center;html=1;shape=mxgraph.mockup.containers.rrect;rSize=0;fontSize=16;fontColor=#666666;strokeColor=#c4c4c4;whiteSpace=wrap;fillColor=none;" vertex="1" parent="zOUMmwGg_xpKz38YwSDY-58">
          <mxGeometry x="0.25" y="1" width="90" height="25" relative="1" as="geometry">
            <mxPoint x="-45" y="-33" as="offset" />
          </mxGeometry>
        </mxCell>
        <mxCell id="zOUMmwGg_xpKz38YwSDY-62" value="OK" style="strokeWidth=1;shadow=0;dashed=0;align=center;html=1;shape=mxgraph.mockup.containers.rrect;rSize=0;fontSize=16;fontColor=#666666;strokeColor=#c4c4c4;whiteSpace=wrap;fillColor=none;" vertex="1" parent="zOUMmwGg_xpKz38YwSDY-58">
          <mxGeometry x="0.75" y="1" width="90" height="25" relative="1" as="geometry">
            <mxPoint x="-45" y="-33" as="offset" />
          </mxGeometry>
        </mxCell>
        <mxCell id="zOUMmwGg_xpKz38YwSDY-63" style="edgeStyle=orthogonalEdgeStyle;rounded=0;orthogonalLoop=1;jettySize=auto;html=1;fontSize=13;" edge="1" parent="1" source="zOUMmwGg_xpKz38YwSDY-10" target="zOUMmwGg_xpKz38YwSDY-41">
          <mxGeometry relative="1" as="geometry" />
        </mxCell>
        <mxCell id="zOUMmwGg_xpKz38YwSDY-64" style="edgeStyle=orthogonalEdgeStyle;rounded=0;orthogonalLoop=1;jettySize=auto;html=1;fontSize=13;" edge="1" parent="1" source="zOUMmwGg_xpKz38YwSDY-10" target="zOUMmwGg_xpKz38YwSDY-46">
          <mxGeometry relative="1" as="geometry" />
        </mxCell>
        <mxCell id="zOUMmwGg_xpKz38YwSDY-65" style="edgeStyle=orthogonalEdgeStyle;rounded=0;orthogonalLoop=1;jettySize=auto;html=1;fontSize=13;" edge="1" parent="1" source="zOUMmwGg_xpKz38YwSDY-10" target="zOUMmwGg_xpKz38YwSDY-51">
          <mxGeometry relative="1" as="geometry" />
        </mxCell>
        <mxCell id="zOUMmwGg_xpKz38YwSDY-66" style="edgeStyle=orthogonalEdgeStyle;rounded=0;orthogonalLoop=1;jettySize=auto;html=1;fontSize=13;" edge="1" parent="1" source="zOUMmwGg_xpKz38YwSDY-10" target="zOUMmwGg_xpKz38YwSDY-58">
          <mxGeometry relative="1" as="geometry">
            <Array as="points">
              <mxPoint y="-680" />
              <mxPoint y="-330" />
            </Array>
          </mxGeometry>
        </mxCell>
        <mxCell id="zOUMmwGg_xpKz38YwSDY-67" style="edgeStyle=orthogonalEdgeStyle;rounded=0;orthogonalLoop=1;jettySize=auto;html=1;fontSize=13;" edge="1" parent="1" source="zOUMmwGg_xpKz38YwSDY-10" target="zOUMmwGg_xpKz38YwSDY-2">
          <mxGeometry relative="1" as="geometry" />
        </mxCell>
        <mxCell id="zOUMmwGg_xpKz38YwSDY-68" style="edgeStyle=orthogonalEdgeStyle;rounded=0;orthogonalLoop=1;jettySize=auto;html=1;fontSize=13;" edge="1" parent="1" source="zOUMmwGg_xpKz38YwSDY-2" target="bsy1FFPhVirSa5bNv7_C-1">
          <mxGeometry relative="1" as="geometry" />
        </mxCell>
        <mxCell id="zOUMmwGg_xpKz38YwSDY-70" style="edgeStyle=orthogonalEdgeStyle;rounded=0;orthogonalLoop=1;jettySize=auto;html=1;fontSize=13;" edge="1" parent="1" source="zOUMmwGg_xpKz38YwSDY-2" target="09SewAB6d0spETSHWCLL-46">
          <mxGeometry relative="1" as="geometry" />
        </mxCell>
        <mxCell id="zOUMmwGg_xpKz38YwSDY-71" style="edgeStyle=orthogonalEdgeStyle;rounded=0;orthogonalLoop=1;jettySize=auto;html=1;fontSize=13;" edge="1" parent="1" source="zOUMmwGg_xpKz38YwSDY-2" target="KsnyNKV8xD6eK6TbKihS-132">
          <mxGeometry relative="1" as="geometry" />
        </mxCell>
        <mxCell id="zOUMmwGg_xpKz38YwSDY-72" value="" style="strokeWidth=1;shadow=0;dashed=0;align=center;html=1;shape=mxgraph.mockup.text.textBox;align=left;fontSize=12;spacingLeft=4;spacingTop=-3;strokeColor=#36393d;mainText=;fillColor=#eeeeee;" vertex="1" parent="1">
          <mxGeometry x="880" y="-700" width="150" height="25" as="geometry" />
        </mxCell>
        <mxCell id="zOUMmwGg_xpKz38YwSDY-73" value="Chú thích:" style="text;html=1;strokeColor=none;fillColor=none;align=center;verticalAlign=middle;whiteSpace=wrap;rounded=0;fontSize=19;" vertex="1" parent="1">
          <mxGeometry x="860" y="-740" width="150" height="20" as="geometry" />
        </mxCell>
        <mxCell id="zOUMmwGg_xpKz38YwSDY-74" value="Text field không cho phép người dùng nhập" style="text;html=1;strokeColor=none;fillColor=none;align=center;verticalAlign=middle;whiteSpace=wrap;rounded=0;fontSize=19;" vertex="1" parent="1">
          <mxGeometry x="1070" y="-700" width="250" height="25" as="geometry" />
        </mxCell>
        <mxCell id="zOUMmwGg_xpKz38YwSDY-75" value="" style="strokeWidth=1;shadow=0;dashed=0;align=center;html=1;shape=mxgraph.mockup.text.textBox;align=left;fontSize=12;spacingLeft=4;spacingTop=-3;mainText=;" vertex="1" parent="1">
          <mxGeometry x="880" y="-640" width="150" height="25" as="geometry" />
        </mxCell>
        <mxCell id="zOUMmwGg_xpKz38YwSDY-76" value="Text field cho phép người dùng nhập" style="text;html=1;strokeColor=none;fillColor=none;align=center;verticalAlign=middle;whiteSpace=wrap;rounded=0;fontSize=19;" vertex="1" parent="1">
          <mxGeometry x="1070" y="-640" width="250" height="25" as="geometry" />
        </mxCell>
        <mxCell id="zOUMmwGg_xpKz38YwSDY-77" value="********" style="strokeWidth=1;shadow=0;dashed=0;align=center;html=1;shape=mxgraph.mockup.forms.pwField;strokeColor=#999999;mainText=;align=left;fontColor=#666666;fontSize=17;spacingLeft=3;" vertex="1" parent="1">
          <mxGeometry x="880" y="-590" width="150" height="30" as="geometry" />
        </mxCell>
        <mxCell id="zOUMmwGg_xpKz38YwSDY-78" value="Vùng nhập mật khẩu" style="text;html=1;strokeColor=none;fillColor=none;align=center;verticalAlign=middle;whiteSpace=wrap;rounded=0;fontSize=19;" vertex="1" parent="1">
          <mxGeometry x="1070" y="-585" width="250" height="25" as="geometry" />
        </mxCell>
        <mxCell id="zOUMmwGg_xpKz38YwSDY-79" value="Option 1" style="strokeWidth=1;shadow=0;dashed=0;align=center;html=1;shape=mxgraph.mockup.forms.comboBox;strokeColor=#999999;fillColor=#ddeeff;align=left;fillColor2=#aaddff;mainText=;fontColor=#666666;fontSize=17;spacingLeft=3;" vertex="1" parent="1">
          <mxGeometry x="880" y="-532.5" width="150" height="25" as="geometry" />
        </mxCell>
        <mxCell id="zOUMmwGg_xpKz38YwSDY-80" value="Combo box" style="text;html=1;strokeColor=none;fillColor=none;align=center;verticalAlign=middle;whiteSpace=wrap;rounded=0;fontSize=19;" vertex="1" parent="1">
          <mxGeometry x="1070" y="-532.5" width="250" height="25" as="geometry" />
        </mxCell>
        <mxCell id="zOUMmwGg_xpKz38YwSDY-90" value="&lt;table cellpadding=&quot;0&quot; cellspacing=&quot;0&quot; style=&quot;width:100%;height:100%;&quot;&gt;&lt;tr&gt;&lt;td style=&quot;width:85%&quot;&gt;100&lt;/td&gt;&lt;td style=&quot;width:15%&quot;&gt;&lt;/td&gt;&lt;/tr&gt;&lt;/table&gt;" style="strokeWidth=1;shadow=0;dashed=0;align=center;html=1;shape=mxgraph.mockup.forms.spinner;strokeColor=#999999;spinLayout=right;spinStyle=normal;adjStyle=triangle;fillColor=#aaddff;fontSize=17;fontColor=#666666;mainText=;html=1;overflow=fill;" vertex="1" parent="1">
          <mxGeometry x="880" y="-480" width="150" height="30" as="geometry" />
        </mxCell>
        <mxCell id="zOUMmwGg_xpKz38YwSDY-91" value="Spinner" style="text;html=1;strokeColor=none;fillColor=none;align=center;verticalAlign=middle;whiteSpace=wrap;rounded=0;fontSize=19;" vertex="1" parent="1">
          <mxGeometry x="1070" y="-480" width="250" height="30" as="geometry" />
        </mxCell>
        <mxCell id="zOUMmwGg_xpKz38YwSDY-92" value="" style="strokeWidth=1;shadow=0;dashed=0;align=center;html=1;shape=mxgraph.mockup.buttons.button;strokeColor=#666666;mainText=;buttonStyle=round;fontSize=12;fontStyle=1;fillColor=#f5f5f5;whiteSpace=wrap;gradientColor=#b3b3b3;" vertex="1" parent="1">
          <mxGeometry x="880" y="-430" width="150" height="30" as="geometry" />
        </mxCell>
        <mxCell id="zOUMmwGg_xpKz38YwSDY-93" value="Nút(button)" style="text;html=1;strokeColor=none;fillColor=none;align=center;verticalAlign=middle;whiteSpace=wrap;rounded=0;fontSize=19;" vertex="1" parent="1">
          <mxGeometry x="1070" y="-430" width="250" height="30" as="geometry" />
        </mxCell>
        <mxCell id="zOUMmwGg_xpKz38YwSDY-94" value="" style="shape=table;startSize=0;container=1;collapsible=0;childLayout=tableLayout;" vertex="1" parent="1">
          <mxGeometry x="880" y="-380" width="150" height="80" as="geometry" />
        </mxCell>
        <mxCell id="zOUMmwGg_xpKz38YwSDY-95" value="" style="shape=partialRectangle;collapsible=0;dropTarget=0;pointerEvents=0;fillColor=none;top=0;left=0;bottom=0;right=0;points=[[0,0.5],[1,0.5]];portConstraint=eastwest;" vertex="1" parent="zOUMmwGg_xpKz38YwSDY-94">
          <mxGeometry width="150" height="40" as="geometry" />
        </mxCell>
        <mxCell id="zOUMmwGg_xpKz38YwSDY-96" value="" style="shape=partialRectangle;html=1;whiteSpace=wrap;connectable=0;overflow=hidden;fillColor=#f5f5f5;top=0;left=0;bottom=0;right=0;gradientColor=#b3b3b3;strokeColor=#666666;" vertex="1" parent="zOUMmwGg_xpKz38YwSDY-95">
          <mxGeometry width="75" height="40" as="geometry" />
        </mxCell>
        <mxCell id="zOUMmwGg_xpKz38YwSDY-97" value="" style="shape=partialRectangle;html=1;whiteSpace=wrap;connectable=0;overflow=hidden;fillColor=#f5f5f5;top=0;left=0;bottom=0;right=0;gradientColor=#b3b3b3;strokeColor=#666666;" vertex="1" parent="zOUMmwGg_xpKz38YwSDY-95">
          <mxGeometry x="75" width="75" height="40" as="geometry" />
        </mxCell>
        <mxCell id="zOUMmwGg_xpKz38YwSDY-98" value="" style="shape=partialRectangle;collapsible=0;dropTarget=0;pointerEvents=0;fillColor=none;top=0;left=0;bottom=0;right=0;points=[[0,0.5],[1,0.5]];portConstraint=eastwest;" vertex="1" parent="zOUMmwGg_xpKz38YwSDY-94">
          <mxGeometry y="40" width="150" height="40" as="geometry" />
        </mxCell>
        <mxCell id="zOUMmwGg_xpKz38YwSDY-99" value="" style="shape=partialRectangle;html=1;whiteSpace=wrap;connectable=0;overflow=hidden;fillColor=none;top=0;left=0;bottom=0;right=0;" vertex="1" parent="zOUMmwGg_xpKz38YwSDY-98">
          <mxGeometry width="75" height="40" as="geometry" />
        </mxCell>
        <mxCell id="zOUMmwGg_xpKz38YwSDY-100" value="" style="shape=partialRectangle;html=1;whiteSpace=wrap;connectable=0;overflow=hidden;fillColor=none;top=0;left=0;bottom=0;right=0;" vertex="1" parent="zOUMmwGg_xpKz38YwSDY-98">
          <mxGeometry x="75" width="75" height="40" as="geometry" />
        </mxCell>
        <mxCell id="zOUMmwGg_xpKz38YwSDY-101" value="Bảng" style="text;html=1;strokeColor=none;fillColor=none;align=center;verticalAlign=middle;whiteSpace=wrap;rounded=0;fontSize=19;" vertex="1" parent="1">
          <mxGeometry x="1070" y="-360" width="250" height="30" as="geometry" />
        </mxCell>
      </root>
    </mxGraphModel>
  </diagram>
</mxfile>
